HIERARCHY
ROOT Hips
{
 OFFSET 0.000000 0.000000 0.000000
 CHANNELS 6 Xposition Yposition Zposition Yrotation Xrotation Zrotation
 JOINT Chest
 {
  OFFSET 0.000000 9.581000 -0.001100
  CHANNELS 3 Yrotation Xrotation Zrotation
  JOINT Chest2
  {
   OFFSET 0.000000 9.561100 0.002200
   CHANNELS 3 Yrotation Xrotation Zrotation
   JOINT Chest3
   {
    OFFSET 0.000000 9.521100 0.000000
    CHANNELS 3 Yrotation Xrotation Zrotation
    JOINT Chest4
    {
     OFFSET 0.000000 9.511400 0.000000
     CHANNELS 3 Yrotation Xrotation Zrotation
     JOINT Neck
     {
      OFFSET 0.000000 14.375100 0.000000
      CHANNELS 3 Yrotation Xrotation Zrotation
      JOINT Head
      {
       OFFSET 0.000000 8.901200 0.004600
       CHANNELS 3 Yrotation Xrotation Zrotation
       End Site
       {
        OFFSET 0.000000 16.962200 0.002400
       }
      }
     }
     JOINT RightCollar
     {
      OFFSET -2.920100 9.518800 0.000000
      CHANNELS 3 Yrotation Xrotation Zrotation
      JOINT RightShoulder
      {
       OFFSET -13.664500 0.000000 0.000000
       CHANNELS 3 Yrotation Xrotation Zrotation
       JOINT RightElbow
       {
        OFFSET 0.000000 -29.999200 0.000000
        CHANNELS 3 Yrotation Xrotation Zrotation
        JOINT RightWrist
        {
         OFFSET 0.000000 -24.253600 0.000000
         CHANNELS 3 Yrotation Xrotation Zrotation
         End Site
         {
          OFFSET 0.000000 -17.918900 0.000000
         }
        }
       }
      }
     }
     JOINT LeftCollar
     {
      OFFSET 2.920100 9.518800 0.000000
      CHANNELS 3 Yrotation Xrotation Zrotation
      JOINT LeftShoulder
      {
       OFFSET 13.664500 0.000000 0.000000
       CHANNELS 3 Yrotation Xrotation Zrotation
       JOINT LeftElbow
       {
        OFFSET 0.000000 -29.999200 0.000000
        CHANNELS 3 Yrotation Xrotation Zrotation
        JOINT LeftWrist
        {
         OFFSET 0.000000 -24.253600 0.000000
         CHANNELS 3 Yrotation Xrotation Zrotation
         End Site
         {
          OFFSET 0.000000 -17.918900 0.000000
         }
        }
       }
      }
     }
    }
   }
  }
 }
 JOINT RightHip
 {
  OFFSET -7.797300 0.005300 0.000500
  CHANNELS 3 Yrotation Xrotation Zrotation
  JOINT RightKnee
  {
   OFFSET 0.000000 -40.663400 -0.000500
   CHANNELS 3 Yrotation Xrotation Zrotation
   JOINT RightAnkle
   {
    OFFSET 0.000000 -39.523700 -0.000900
    CHANNELS 3 Yrotation Xrotation Zrotation
    JOINT RightToe
    {
     OFFSET 0.000000 -6.418000 14.485300
     CHANNELS 3 Yrotation Xrotation Zrotation
     End Site
     {
      OFFSET 0.000000 -1.465200 6.326400
     }
    }
   }
  }
 }
 JOINT LeftHip
 {
  OFFSET 7.797300 0.005300 0.000500
  CHANNELS 3 Yrotation Xrotation Zrotation
  JOINT LeftKnee
  {
   OFFSET 0.000000 -40.663400 -0.000500
   CHANNELS 3 Yrotation Xrotation Zrotation
   JOINT LeftAnkle
   {
    OFFSET 0.000000 -39.523700 -0.000900
    CHANNELS 3 Yrotation Xrotation Zrotation
    JOINT LeftToe
    {
     OFFSET 0.000000 -6.418000 14.485300
     CHANNELS 3 Yrotation Xrotation Zrotation
     End Site
     {
      OFFSET 0.000000 -1.465200 6.326400
     }
    }
   }
  }
 }
}
MOTION
Frames: 5
Frame Time: 0.008333
0.000000 86.422400 0.000000 0.000000 -5.767877 0.000000 0.000000 11.653817 0.000000 0.000000 -5.885947 0.000000 0.000000 -0.000000 0.000000 0.000000 -0.000000 0.000000 0.000000 12.528835 0.000000 0.000000 0.711642 0.000000 0.000000 -0.000000 0.000000 0.000000 0.000000 -90.000000 0.000000 -2.309062 0.000000 0.000000 2.309062 0.000000 0.000000 -0.000000 0.000000 0.000000 -0.000000 90.000000 0.000000 -2.309062 0.000000 0.000000 2.309062 0.000000 0.000000 8.520406 0.000000 0.000000 1.905762 0.000000 -0.000000 -4.658285 0.000000 0.000000 -0.000000 0.000000 0.000000 8.520406 0.000000 0.000000 1.905762 0.000000 -0.000000 -4.658285 0.000000 0.000000 -0.000000 0.000000
-13.973250 126.911672 26.126101 -166.807099 -49.252756 -3.001428 -2.880821 26.433916 -0.235834 -0.466248 4.463042 0.054991 -0.744061 7.068543 0.103563 -2.322426 21.661659 -0.082064 10.312936 13.187372 -2.536412 12.219138 -11.478077 -5.357792 1.713283 3.505705 1.447038 6.468530 -7.758857 -10.928639 -92.651565 -63.365007 144.624593 5.957434 4.803822 -9.605084 -10.347530 -0.359955 -1.453046 -6.965239 -11.403139 14.111909 59.575090 -55.001088 -110.502238 2.480838 -8.170978 13.139589 -5.912985 -23.236213 -6.627494 -4.304734 78.532272 -3.702114 6.767649 -15.076740 2.473088 0.000756 -0.003063 0.000335 6.062893 5.625420 1.330169 128.312834 65.050063 148.089251 6.256849 12.615186 0.063811 0.002515 -0.003811 0.001114
-13.973169 126.911847 26.125837 -166.809730 -49.253770 -2.993499 -2.889168 26.423117 -0.222202 -0.467697 4.459506 0.057900 -0.745629 7.063558 0.111771 -2.329413 21.647083 -0.054446 10.493538 13.311063 -2.566959 12.444557 -11.337948 -5.428267 1.686310 3.498030 1.421905 6.499649 -7.728754 -10.946665 -91.902734 -63.224355 144.074824 5.637061 5.163555 -9.410183 -10.307730 -0.367110 -1.423085 -7.046587 -11.133321 14.156880 59.641453 -54.893708 -110.581862 2.703523 -8.052257 13.474899 -5.907492 -23.234362 -6.631247 -4.257231 78.531914 -3.664367 6.763192 -15.072289 2.476923 0.000582 -0.003477 0.000258 6.065141 5.627848 1.326919 128.319737 65.049582 148.090434 6.264158 12.617707 0.052155 -0.000601 -0.002841 -0.000266
-13.972523 126.911647 26.125833 -166.811069 -49.251936 -2.988032 -2.904898 26.401586 -0.178376 -0.469298 4.454479 0.056818 -0.747321 7.071464 0.083777 -2.337413 21.632248 -0.027797 10.670822 13.436341 -2.589773 12.663271 -11.186302 -5.500780 1.663374 3.480565 1.408409 6.541857 -7.710137 -10.954928 -91.144322 -63.104099 143.499478 5.329750 5.526354 -9.179061 -10.266311 -0.371476 -1.388779 -7.120109 -10.858995 14.206244 59.693343 -54.782429 -110.654096 2.873163 -7.906729 13.768089 -5.899291 -23.237849 -6.636213 -4.258672 78.532035 -3.664629 6.759031 -15.051452 2.476742 0.000083 -0.002662 0.000037 6.064836 5.624863 1.329118 128.330293 65.049946 148.098958 6.272658 12.637851 -0.013558 -0.003040 0.002235 -0.001347
-13.971577 126.911405 26.125889 -166.812879 -49.250162 -2.982450 -2.918219 26.387496 -0.159178 -0.473813 4.445700 0.067993 -0.741594 7.086118 0.050861 -2.342485 21.605257 0.021899 10.841901 13.569683 -2.614989 12.875293 -11.025266 -5.574184 1.639655 3.465204 1.394171 6.587273 -7.692638 -10.970073 -90.405276 -62.982069 142.937098 5.056383 5.889872 -8.913219 -10.219188 -0.375647 -1.347088 -7.177069 -10.576678 14.246434 59.724817 -54.675085 -110.718808 2.992999 -7.773024 13.994056 -5.898031 -23.239395 -6.640520 -4.240699 78.529019 -3.652210 6.763359 -15.039683 2.479901 0.000021 -0.003552 0.000009 6.064799 5.623333 1.326899 128.334959 65.052500 148.107134 6.277414 12.655163 -0.056915 -0.002005 0.003419 -0.000888
